<svg width="625" height="423" viewBox="0 0 625 423" fill="none" xmlns="http://www.w3.org/2000/svg">
<g clip-path="url(#clip0)">
<path d="M87.1766 416.901C135.323 416.901 174.353 377.871 174.353 329.725C174.353 281.578 135.323 242.548 87.1766 242.548C39.0303 242.548 0 281.578 0 329.725C0 377.871 39.0303 416.901 87.1766 416.901Z" fill="#F2F2F2"/>
<path d="M192.632 368.392C150.017 368.392 108.721 353.616 75.7791 326.581C42.8373 299.547 20.2884 261.927 11.9746 220.131C3.66075 178.335 10.0963 134.949 30.1847 97.3662C50.2731 59.7832 82.7715 30.3284 122.142 14.0203C161.513 -2.28775 205.321 -4.43994 246.101 7.93044C286.881 20.3008 322.11 46.4284 345.785 81.8613C369.461 117.294 380.118 159.84 375.941 202.25C371.764 244.659 353.011 284.309 322.878 314.442C305.814 331.6 285.516 345.203 263.159 354.463C240.802 363.724 216.831 368.458 192.632 368.392ZM192.632 1.40604C91.8418 1.40604 9.84253 83.405 9.84253 184.196C9.84253 284.986 91.8418 366.986 192.632 366.986C293.423 366.986 375.422 284.986 375.422 184.196C375.422 83.4049 293.423 1.40604 192.632 1.40604Z" fill="#2F2E41"/>
<path d="M288.597 242.497L288.576 242.508L197.792 293.059L98.3803 243.354L96.6672 242.497L101.827 139.309L191.6 75.3328L192.591 75.9521L285.501 134.15L288.597 242.497Z" fill="#2A9347"/>
<path opacity="0.3" d="M288.576 242.508L197.792 293.059L98.3804 243.354L186.441 181.617L288.576 242.508Z" fill="black"/>
<path opacity="0.1" d="M288.597 242.497L186.441 181.617L192.591 75.952L285.501 134.15L288.597 242.497Z" fill="black"/>
<path d="M100.505 171.15L100.001 170.436L190.776 106.363L286.668 166.484L286.204 167.225L190.805 107.413L100.505 171.15Z" fill="#F2F2F2"/>
<path d="M98.7456 206.206L98.2549 205.483L188.57 144.166L188.806 144.3L286.749 199.81L286.317 200.571L188.611 145.195L98.7456 206.206Z" fill="#F2F2F2"/>
<path d="M133.205 261.022L132.745 260.279L223.767 203.878V95.7543H224.641V204.365L133.205 261.022Z" fill="#F2F2F2"/>
<path d="M168.931 278.883L168.467 278.143L256.111 223.171V116.013H256.985V223.655L168.931 278.883Z" fill="#F2F2F2"/>
<path d="M255.781 261.033L153.85 204.399L153.865 204.126L159.231 98.0679L160.104 98.1124L154.752 203.899L256.206 260.269L255.781 261.033Z" fill="#F2F2F2"/>
<path d="M223.712 278.9L122.926 226.084L122.942 225.804L128.883 119.693L129.756 119.741L123.831 225.572L224.118 278.126L223.712 278.9Z" fill="#F2F2F2"/>
<path d="M305.821 75.2252C325.235 75.2252 340.973 59.4872 340.973 40.0734C340.973 20.6595 325.235 4.92151 305.821 4.92151C286.407 4.92151 270.669 20.6595 270.669 40.0734C270.669 59.4872 286.407 75.2252 305.821 75.2252Z" fill="#3F3D56"/>
<path d="M625 415.495H20.3881V416.901H625V415.495Z" fill="#2F2E41"/>
<path d="M554.805 226.415L562.84 248.424C562.84 248.424 554.455 273.577 562.84 274.275C571.224 274.974 572.272 250.17 572.272 250.17L567.731 223.62L554.805 226.415Z" fill="#FFB9B9"/>
<path d="M558.648 154.449L564.587 160.388V188.685C564.587 188.685 568.08 193.925 567.381 195.323C566.683 196.72 565.984 196.72 566.683 197.768C567.381 198.816 568.08 199.515 567.381 200.214C567.041 200.667 566.857 201.219 566.857 201.786C566.857 202.353 567.041 202.904 567.381 203.358C568.08 204.056 569.478 205.105 568.43 206.153C567.381 207.201 565.984 206.502 567.381 210.345C568.779 214.188 571.224 215.236 570.526 216.633C569.827 218.03 569.827 221.524 569.827 221.524L554.805 223.62L551.661 184.144L558.648 154.449Z" fill="#D0CDE1"/>
<path d="M570.525 221.175L553.058 221.873L553.757 229.209L569.128 226.415L570.525 221.175Z" fill="#3F3D56"/>
<path d="M522.491 117.943L520.394 138.904L541.704 142.048L543.276 129.995L544.849 117.943H522.491Z" fill="#FFB9B9"/>
<path opacity="0.1" d="M522.491 117.943L520.394 138.904L541.704 142.048L543.276 129.995L544.849 117.943H522.491Z" fill="black"/>
<path d="M476.202 217.681L488.08 243.183C488.08 243.183 490.176 255.061 493.32 255.411C496.464 255.76 499.608 243.183 499.608 243.183L495.416 236.546L490.525 217.681L476.202 217.681Z" fill="#FFB9B9"/>
<path d="M501.006 240.738L491.224 256.109C491.224 256.109 481.792 402.485 483.189 401.437C484.586 400.389 489.128 400.04 490.875 397.245C492.621 394.45 503.451 397.245 503.451 397.245L509.739 390.607V385.367C509.739 384.319 522.316 304.319 522.316 304.319V324.581C522.316 324.581 518.473 398.992 524.761 398.293C531.049 397.594 543.975 393.402 543.975 393.402C543.975 393.402 562.491 254.362 556.901 249.122C551.311 243.882 548.866 232.004 548.866 232.004L501.006 240.738Z" fill="#2F2E41"/>
<path d="M534.193 124.755C543.454 124.755 550.962 117.247 550.962 107.986C550.962 98.7253 543.454 91.2178 534.193 91.2178C524.932 91.2178 517.425 98.7253 517.425 107.986C517.425 117.247 524.932 124.755 534.193 124.755Z" fill="#FFB9B9"/>
<path d="M496.813 142.222L494.368 140.825C494.368 140.825 483.538 148.161 480.045 164.581C476.551 181 474.106 185.192 474.106 185.192C474.106 185.192 470.612 185.891 473.058 188.336C475.503 190.781 475.503 190.432 473.407 191.83C471.311 193.227 469.914 190.432 471.311 193.227C472.708 196.022 474.455 195.323 473.058 197.07C471.66 198.816 469.215 198.816 470.612 200.214C472.01 201.611 469.215 204.755 470.962 206.153C472.709 207.55 473.407 207.899 473.407 210.345C473.397 211.772 473.633 213.19 474.106 214.537H492.272C492.272 214.537 488.778 207.899 489.826 206.502C490.875 205.105 491.224 203.707 490.525 203.009C489.827 202.31 487.73 203.707 489.826 201.961C491.923 200.214 492.621 201.262 491.923 199.166C491.224 197.07 489.826 198.118 491.224 197.07C492.621 196.022 493.669 196.371 492.971 195.323C492.272 194.275 490.875 194.275 492.272 193.576C493.669 192.878 494.717 193.576 494.368 191.83C494.019 190.083 493.669 190.781 494.368 190.083C495.067 189.384 502.403 165.629 502.403 164.93C502.403 164.231 496.813 142.222 496.813 142.222Z" fill="#D0CDE1"/>
<path d="M493.32 213.14L471.311 214.537L476.901 219.777L492.272 220.127L493.32 213.14Z" fill="#3F3D56"/>
<path d="M499.608 239.341L495.067 247.725C495.067 247.725 508.691 249.472 513.582 251.218C518.473 252.965 531.049 255.41 531.049 255.41L534.193 243.183L499.608 239.341Z" fill="#3F3D56"/>
<path d="M539.433 243.183L543.276 254.712L558.648 251.568L556.901 240.738L539.433 243.183Z" fill="#3F3D56"/>
<path d="M545.722 130.345C545.722 130.345 544.674 129.646 542.228 131.043C539.783 132.441 531.748 133.139 527.905 128.947C524.062 124.755 521.268 121.262 520.22 121.96C519.172 122.659 518.473 130.694 518.473 130.694L514.979 133.489L494.368 140.825L496.115 187.987L499.259 198.816C499.259 198.816 496.813 207.201 499.957 212.092C503.102 216.982 498.211 218.729 498.211 218.729C498.211 218.729 497.163 220.127 497.861 223.62C498.56 227.113 497.163 240.039 497.163 240.039C497.163 240.039 526.857 253.314 557.949 241.786L554.455 228.511L552.709 198.816C552.709 198.816 554.456 193.926 554.106 191.829C553.757 189.733 564.587 160.388 564.587 160.388C564.587 160.388 562.84 145.716 553.757 142.572C544.674 139.428 543.276 136.283 543.276 136.283C543.276 136.283 547.469 131.742 545.722 130.345Z" fill="#D0CDE1"/>
<path d="M517.309 110.134C517.309 110.134 515.567 107.522 516.237 104.71C516.637 103.113 516.795 101.464 516.706 99.8204C517.455 97.3836 518.396 95.0098 519.519 92.7212C520.925 90.1761 520.255 89.1046 524.676 88.3009C529.096 87.4972 527.288 81.7374 538.941 87.966C539.335 88.5149 539.881 88.9351 540.513 89.1735C541.145 89.4119 541.833 89.4578 542.491 89.3055C544.902 88.8367 545.773 92.1854 545.773 92.1854C545.773 92.1854 547.38 91.2477 547.983 92.5872C548.586 93.9267 552.884 91.7833 552.884 100.825C552.884 109.866 547.993 117.943 547.993 117.943C547.993 117.943 548.351 102.734 540.381 101.193C532.411 99.653 523.839 95.1657 521.762 100.926C520.642 104.158 519.147 107.249 517.309 110.134Z" fill="#2F2E41"/>
<path d="M548.167 113.751C549.035 113.751 549.739 112.812 549.739 111.655C549.739 110.497 549.035 109.558 548.167 109.558C547.299 109.558 546.595 110.497 546.595 111.655C546.595 112.812 547.299 113.751 548.167 113.751Z" fill="#FFB9B9"/>
<path d="M539.259 392.164L541.716 399.535C541.716 399.535 541.716 406.906 544.173 410.591C546.63 414.276 549.087 422.261 539.259 422.875C529.432 423.49 525.132 419.804 525.132 419.804C525.132 419.804 526.975 414.891 525.132 413.048C523.289 411.205 525.132 407.52 525.132 407.52L526.975 392.779L539.259 392.164Z" fill="#2F2E41"/>
<path d="M491.399 392.164L488.942 399.535C488.942 399.535 488.942 406.906 486.485 410.591C484.028 414.276 481.571 422.261 491.399 422.875C501.226 423.49 505.526 419.804 505.526 419.804C505.526 419.804 503.683 414.891 505.526 413.048C507.369 411.205 505.526 407.52 505.526 407.52L503.683 392.779L491.399 392.164Z" fill="#2F2E41"/>
</g>
<defs>
<clipPath id="clip0">
<rect width="625" height="422.945" fill="white"/>
</clipPath>
</defs>
</svg>
