<svg width="523" height="545" viewBox="0 0 523 545" fill="none" xmlns="http://www.w3.org/2000/svg">
<g clip-path="url(#clip0)">
<path d="M495.086 507.553C495.086 528.059 384.258 544.685 247.543 544.685C110.827 544.685 2.38419e-06 528.059 2.38419e-06 507.553C2.38419e-06 493.036 55.5534 480.459 136.516 474.359C169.902 471.835 207.625 470.422 247.543 470.422C263.952 470.422 279.987 470.661 295.494 471.117C409.26 474.47 495.086 489.507 495.086 507.553Z" fill="#3F3D56"/>
<path opacity="0.1" d="M215.602 515.139C268.082 515.139 310.626 509.955 310.626 503.561C310.626 497.166 268.082 491.982 215.602 491.982C163.121 491.982 120.577 497.166 120.577 503.561C120.577 509.955 163.121 515.139 215.602 515.139Z" fill="black"/>
<path d="M215.202 511.945C264.816 511.945 305.037 469.044 305.037 416.122C305.037 363.201 264.816 320.299 215.202 320.299C165.589 320.299 125.368 363.201 125.368 416.122C125.368 469.044 165.589 511.945 215.202 511.945Z" fill="#3F3D56"/>
<path d="M243.55 472.817H187.653V523.923H243.55V472.817Z" fill="#2A9347"/>
<path d="M316.615 485.195L313.421 502.763L334.183 505.957L347.758 497.971L346.959 485.195H316.615Z" fill="#575A89"/>
<path d="M212.008 155.404C212.008 155.404 210.411 173.77 206.419 174.568C202.426 175.367 215.203 207.308 215.203 207.308H234.367L249.539 203.315L242.352 185.748C242.352 185.748 232.77 172.971 239.957 162.59C247.144 152.21 212.008 155.404 212.008 155.404Z" fill="#A0616A"/>
<path opacity="0.1" d="M212.008 155.404C212.008 155.404 210.411 173.77 206.419 174.568C202.426 175.367 215.203 207.308 215.203 207.308H234.367L249.539 203.315L242.352 185.748C242.352 185.748 232.77 172.971 239.957 162.59C247.144 152.21 212.008 155.404 212.008 155.404Z" fill="black"/>
<path d="M172.082 295.944C172.082 295.944 151.321 335.87 168.09 343.856C184.859 351.841 188.851 351.042 188.851 353.438C188.851 355.834 185.657 355.035 187.254 359.028C188.851 363.02 184.06 378.991 188.851 388.573C193.642 398.155 192.045 405.342 192.045 405.342C192.045 405.342 192.045 406.141 193.642 409.335C195.239 412.529 196.038 414.924 195.239 416.521C194.441 418.119 189.65 428.499 194.441 430.895C199.232 433.291 223.986 434.888 226.382 430.895C228.777 426.902 223.986 424.507 226.382 422.111C228.777 419.716 230.374 418.917 228.777 417.32C227.18 415.723 225.583 395.76 225.583 395.76C225.583 395.76 229.576 372.603 227.979 369.409C226.382 366.214 223.986 363.02 225.583 360.625C227.18 358.229 228.777 359.028 229.576 355.834C230.374 352.639 231.972 345.453 231.972 345.453L240.755 344.654L261.517 348.647C261.517 348.647 284.674 374.2 310.227 382.185C310.227 382.185 317.414 389.372 319.809 389.372C322.205 389.372 322.205 389.372 321.406 390.969C320.608 392.566 318.212 392.566 319.809 394.163C321.406 395.76 323.802 393.364 322.205 395.76C320.608 398.155 319.011 398.155 320.608 399.752C322.205 401.35 319.809 410.133 319.809 410.932C319.809 411.73 312.623 486.792 315.018 488.389C317.414 489.986 350.952 494.777 353.347 488.389C355.743 482.001 351.75 474.015 351.75 474.015C351.75 474.015 363.728 378.192 360.534 371.804C357.34 365.416 346.161 336.669 286.271 318.303C286.271 318.303 269.502 315.109 269.502 312.713C269.502 310.318 267.905 295.146 264.711 294.347C261.517 293.549 243.151 292.75 243.151 292.75L219.994 299.937L188.053 294.347L172.082 295.944Z" fill="#2F2E41"/>
<path d="M200.031 430.096L196.038 444.47C196.038 444.47 192.844 467.627 196.836 473.217C199.973 477.607 205.572 482.983 215.957 483.927C218.867 484.194 221.781 483.459 224.218 481.845C226.654 480.231 228.466 477.833 229.355 475.049C229.474 474.716 229.548 474.368 229.576 474.015C229.576 472.418 227.18 453.254 227.18 453.254L223.188 433.29L222.389 427.701L200.031 430.096Z" fill="#2F2E41"/>
<path d="M316.615 498.77C316.615 498.77 312.623 494.777 311.824 498.77C311.025 502.762 307.831 519.531 313.421 520.33C319.011 521.128 372.512 529.114 378.102 525.919C383.691 522.725 394.072 517.934 387.684 515.539C381.296 513.143 362.93 505.956 362.93 505.956C362.93 505.956 352.549 492.381 350.952 491.583C349.355 490.784 340.571 492.381 336.578 495.576C332.586 498.77 316.615 498.77 316.615 498.77Z" fill="#2F2E41"/>
<path d="M231.173 172.173C244.844 172.173 255.927 161.09 255.927 147.419C255.927 133.747 244.844 122.664 231.173 122.664C217.502 122.664 206.419 133.747 206.419 147.419C206.419 161.09 217.502 172.173 231.173 172.173Z" fill="#A0616A"/>
<path d="M228.777 203.315L219.195 192.934L208.574 172.173C208.574 172.173 200.829 169.777 199.232 173.77C197.635 177.762 168.888 190.539 168.888 190.539C168.888 190.539 176.075 257.615 172.881 264.003C169.687 270.391 164.097 295.944 168.888 298.34C173.679 300.735 196.038 298.34 203.225 301.534C210.411 304.728 231.173 304.728 236.763 300.735C242.352 296.743 243.949 293.549 249.539 295.944C254.298 297.984 265.422 228.26 268.625 207.483C268.895 205.738 268.671 203.952 267.978 202.328C267.286 200.703 266.152 199.305 264.706 198.292C257.541 193.266 244.637 184.606 242.352 185.748C239.158 187.345 228.777 203.315 228.777 203.315Z" fill="#575A89"/>
<path d="M263.114 200.121C264.989 200.59 266.676 201.621 267.948 203.077C269.22 204.532 270.016 206.342 270.229 208.263L276.689 266.399C276.689 266.399 260.718 300.735 252.733 277.578C244.748 254.421 263.114 200.121 263.114 200.121Z" fill="#575A89"/>
<path d="M261.517 271.988L279.085 267.197C279.085 267.197 282.279 289.556 285.473 289.556C288.667 289.556 274.293 302.332 267.107 300.735C259.92 299.138 249.539 293.549 248.741 289.556C247.942 285.563 255.927 268.794 255.927 268.794L261.517 271.988Z" fill="#575A89"/>
<path d="M212.486 158.097C214.169 154.386 213.877 150.056 215.269 146.226C216.014 144.175 217.223 142.324 218.802 140.817C220.381 139.311 222.287 138.19 224.37 137.542C226.454 136.894 228.66 136.737 230.814 137.082C232.969 137.428 235.015 138.267 236.791 139.534C238.582 140.81 240.376 142.603 242.561 142.36C244.914 142.097 247.013 139.472 249.176 140.434C251.574 141.501 250.927 145.798 253.356 146.79C254.635 147.313 256.146 146.508 256.883 145.34C257.528 144.113 257.879 142.753 257.91 141.367C258.245 137.961 258.548 134.357 257.071 131.27C256.45 130.223 255.908 129.131 255.451 128.004C255.193 126.95 255.089 125.865 255.143 124.782C255.13 120.779 254.838 116.603 252.823 113.144C250.588 109.306 246.455 106.851 242.144 105.78C237.833 104.709 233.316 104.873 228.89 105.248C221.573 105.867 213.942 107.195 208.178 111.744C207.394 112.316 206.72 113.025 206.187 113.836C205.681 114.799 205.323 115.833 205.126 116.903C203.88 121.979 202.011 126.881 199.562 131.498C198.384 133.455 197.422 135.534 196.691 137.699C196.08 139.898 196.121 142.405 197.401 144.295C198.443 145.834 200.108 146.655 201.417 147.913C202.714 149.16 203.32 151.558 204.757 152.502C206.011 153.326 207.513 152.744 208.792 153.618C210.434 154.739 210.552 157.199 212.486 158.097Z" fill="#2F2E41"/>
<path d="M232.77 215.293L235.166 210.502C235.166 210.502 270.301 220.883 277.487 230.465C277.487 230.465 295.055 219.286 304.637 220.883L314.22 222.48L284.674 248.831L247.144 245.637L232.77 215.293Z" fill="#F2F2F2"/>
<path d="M231.173 210.502L198.433 256.018L245.546 279.175C245.546 279.175 249.951 281.571 253.338 279.175L284.674 264.802L314.22 222.48L284.674 237.652C284.674 237.652 281.48 231.264 275.092 234.458L231.173 210.502Z" fill="#2A9347"/>
<path d="M281.48 291.153L287.868 274.384C287.868 274.384 302.242 256.018 294.256 247.234C286.271 238.45 277.487 272.787 277.487 272.787L281.48 291.153Z" fill="#A0616A"/>
<path d="M207.774 288.477L221.714 277.176C221.714 277.176 243.362 268.5 240.861 256.896C238.361 245.291 213.535 270.587 213.535 270.587L207.774 288.477Z" fill="#A0616A"/>
<path opacity="0.1" d="M173.28 207.707H172.481C172.481 207.707 160.104 192.934 157.709 212.898C155.313 232.861 147.328 299.138 168.09 301.534C188.851 303.929 203.624 291.552 203.624 291.552C203.624 291.552 218.796 268.395 213.206 268.395C210.502 268.395 203.146 267.18 196.437 267.597C189.28 268.041 182.849 270.057 183.262 267.996C184.06 264.003 195.639 213.297 173.28 207.707Z" fill="black"/>
<path d="M172.082 192.136L168.888 190.539C168.888 190.539 156.112 192.934 153.716 212.898C151.321 232.861 143.335 299.138 164.097 301.534C184.859 303.929 212.807 298.34 212.807 298.34C212.807 298.34 218.397 267.996 212.807 267.996C207.217 267.996 178.47 271.988 179.269 267.996C180.067 264.003 194.441 197.726 172.082 192.136Z" fill="#575A89"/>
<path d="M269.901 281.97L278.707 268.475L284.275 290.754L269.901 297.142V281.97Z" fill="#575A89"/>
<path d="M89.0141 89.5255C100.921 89.5255 110.574 79.8726 110.574 67.9653C110.574 56.0579 100.921 46.4051 89.0141 46.4051C77.1067 46.4051 67.4539 56.0579 67.4539 67.9653C67.4539 79.8726 77.1067 89.5255 89.0141 89.5255Z" fill="#F2F2F2"/>
<path d="M114.567 228.469H63.4613V279.574H114.567V228.469Z" fill="#F2F2F2"/>
<path d="M297.051 0L309.987 22.4042L322.921 44.8084H297.051H271.181L284.116 22.4042L297.051 0Z" fill="#F2F2F2"/>
<path d="M522.424 134.335C522.115 143.894 519.787 151.555 515.441 157.319C511.094 163.084 505.93 165.967 499.949 165.968C495.077 165.968 490.806 163.147 487.138 157.504C483.469 151.862 481.634 143.184 481.635 131.468C481.635 128.878 481.697 126.412 481.82 124.068C481.943 121.726 482.097 119.506 482.282 117.409L485.52 86.9787H464.154C460.454 125.456 457.417 148.348 455.043 155.655C452.669 162.962 448.645 166.615 442.973 166.615C440.412 166.552 437.969 165.529 436.128 163.748C435.061 162.802 434.217 161.631 433.657 160.32C433.097 159.008 432.836 157.588 432.891 156.163C432.891 153.328 435.126 149.366 439.597 144.278C444.067 139.191 446.549 134.551 447.042 130.358L452.592 86.9787H443.62C441.091 86.9938 438.602 87.612 436.36 88.7822C434.296 89.7301 432.5 91.1763 431.134 92.9906L427.156 98.9102H423.919C426.94 89.538 430.655 82.4932 435.065 77.7756C439.473 73.0584 444.544 70.6998 450.28 70.6998H520.945V86.9786H497.081C496.341 94.3781 495.771 101.778 495.37 109.177C494.968 116.576 494.768 124.007 494.769 131.468C494.769 136.525 495.941 140.625 498.284 143.769C500.627 146.914 503.555 148.487 507.071 148.486C509.228 148.486 511.494 147.608 513.869 145.85C514.996 145.059 515.94 144.034 516.634 142.845C517.328 141.656 517.758 140.33 517.892 138.96C518.077 137.604 518.216 136.54 518.308 135.769C518.401 134.998 518.447 134.521 518.447 134.335L522.424 134.335Z" fill="#2A9347"/>
<path opacity="0.1" d="M522.424 134.335C522.115 143.894 519.787 151.555 515.441 157.319C511.094 163.084 505.93 165.967 499.949 165.968C495.077 165.968 490.806 163.147 487.138 157.504C483.469 151.862 481.634 143.184 481.635 131.468C481.635 128.878 481.697 126.412 481.82 124.068C481.943 121.726 482.097 119.506 482.282 117.409L485.52 86.9787H464.154C460.454 125.456 457.417 148.348 455.043 155.655C452.669 162.962 448.645 166.615 442.973 166.615C440.412 166.552 437.969 165.529 436.128 163.748C435.061 162.802 434.217 161.631 433.657 160.32C433.097 159.008 432.836 157.588 432.891 156.163C432.891 153.328 435.126 149.366 439.597 144.278C444.067 139.191 446.549 134.551 447.042 130.358L452.592 86.9787H443.62C441.091 86.9938 438.602 87.612 436.36 88.7822C434.296 89.7301 432.5 91.1763 431.134 92.9906L427.156 98.9102H423.919C426.94 89.538 430.655 82.4932 435.065 77.7756C439.473 73.0584 444.544 70.6998 450.28 70.6998H520.945V86.9786H497.081C496.341 94.3781 495.771 101.778 495.37 109.177C494.968 116.576 494.768 124.007 494.769 131.468C494.769 136.525 495.941 140.625 498.284 143.769C500.627 146.914 503.555 148.487 507.071 148.486C509.228 148.486 511.494 147.608 513.869 145.85C514.996 145.059 515.94 144.034 516.634 142.845C517.328 141.656 517.758 140.33 517.892 138.96C518.077 137.604 518.216 136.54 518.308 135.769C518.401 134.998 518.447 134.521 518.447 134.335L522.424 134.335Z" fill="black"/>
<path d="M522.424 131.445C522.115 141.004 519.787 148.665 515.441 154.43C511.094 160.195 505.93 163.077 499.949 163.078C495.077 163.078 490.806 160.257 487.138 154.615C483.469 148.973 481.634 140.294 481.635 128.578C481.635 125.988 481.697 123.522 481.82 121.178C481.943 118.836 482.097 116.616 482.282 114.519L485.52 84.0888H464.154C460.454 122.566 457.417 145.458 455.043 152.765C452.669 160.072 448.645 163.725 442.973 163.725C440.412 163.662 437.969 162.639 436.128 160.858C435.061 159.912 434.217 158.741 433.657 157.43C433.097 156.118 432.836 154.699 432.891 153.273C432.891 150.438 435.126 146.476 439.597 141.388C444.067 136.301 446.549 131.661 447.042 127.468L452.592 84.0888H443.62C441.091 84.1039 438.602 84.7222 436.36 85.8923C434.296 86.8402 432.5 88.2864 431.134 90.1007L427.156 96.0203H423.919C426.94 86.6482 430.655 79.6033 435.065 74.8857C439.473 70.1685 444.544 67.8099 450.28 67.81H520.945V84.0888H497.081C496.341 91.4883 495.771 98.8877 495.37 106.287C494.968 113.686 494.768 121.117 494.769 128.578C494.769 133.635 495.941 137.735 498.284 140.88C500.627 144.024 503.555 145.597 507.071 145.597C509.228 145.597 511.494 144.718 513.869 142.96C514.996 142.17 515.94 141.144 516.634 139.955C517.328 138.766 517.758 137.44 517.892 136.07C518.077 134.714 518.216 133.651 518.308 132.879C518.401 132.109 518.447 131.631 518.447 131.445H522.424Z" fill="#2A9347"/>
</g>
<defs>
<clipPath id="clip0">
<rect width="522.424" height="544.685" fill="white"/>
</clipPath>
</defs>
</svg>
